# xmcd
#
# Track frame offsets: 
#        150
#        18081
#        38885
#        53932
#        67396
#        85562
#        96455
#        109347
#        119453
#        137073
#        155695
#        179719
#        191131
#        201749
#        214817
#
# Disc length: 3044 seconds
#
# Revision: 4
# Processed by: cddbd v1.5.2PL0 Copyright (c) Steve Scherf et al.
# Submitted via: ExactAudioCopy v0.99pb4
#
DISCID=ee0be20f
DTITLE=Various Artist - Vin colindatorii
DYEAR=2002
DGENRE=
TTITLE0=Stefan Hrusca - Linu-i lin
TTITLE1=Nicu Alifantis - Decembre
TTITLE2=Ducu Bertzi - Pe podele de nuiele
TTITLE3=Mircea Baniciu - E iarna si-ti cant
TTITLE4=Vali Sterian - Un cantec
TTITLE5=Mircea Vintila - Colind ceresc
TTITLE6=Maria Gheorghiu - Leru-i Doamne lacrima
TTITLE7=Paula Seling  - Colo'n josu'
TTITLE8=Stefan Hrusca - Deschide nana usile
TTITLE9=O. Komornyk&L. Anghel - S-a nascut Iisus
TTITLE10=Horia Stoicanu - De Ajun
TTITLE11=Narcisa Suciu - Cantecul cerbului
TTITLE12=Maria Gheorghiu - Sus boieri, nu mai dormiti
TTITLE13=Ducu Bertzi  - Primeste-ti gazda casa
TTITLE14=Millenium - Crestini, Craciunul a sosit
EXTD=
EXTT0=
EXTT1=
EXTT2=
EXTT3=
EXTT4=
EXTT5=
EXTT6=
EXTT7=
EXTT8=
EXTT9=
EXTT10=
EXTT11=
EXTT12=
EXTT13=
EXTT14=
PLAYORDER=
